/* SVG WhatsApp Icon - Fallback/Reference */
<svg xmlns="http://www.w3.org/2000/svg" viewBox="0 0 24 24" fill="white">
  <path d="M17.472 14.382c-.297-.149-1.758-.867-2.03-.967-.273-.099-.471-.148-.67.15-.197.297-.767.966-.94 1.164-.173.199-.347.223-.644.075-.297-.15-1.255-.463-2.39-1.475-.883-.788-1.48-1.761-1.653-2.059-.173-.297-.018-.458.13-.606.134-.133.298-.347.446-.52.149-.174.198-.298.298-.497.099-.198.05-.371-.025-.52-.075-.149-.669-1.612-.916-2.207-.242-.579-.487-.5-.67-.51-.173-.008-.371-.01-.57-.01-.198 0-.52.074-.792.372-.272.297-1.04 1.016-1.04 2.479 0 1.462 1.065 2.875 1.213 3.074.149.198 2.096 3.2 5.076 4.487.709.306 1.262.489 1.694.625.712.227 1.36.195 1.871.118.571-.085 1.758-.719 2.006-1.413.248-.694.248-1.289.173-1.413-.074-.124-.272-.198-.57-.347m-5.421-7.403h-.004a6.963 6.963 0 00-6.868 6.972c0 1.946.505 3.857 1.463 5.573L2.97 21.99l5.926-1.953a6.998 6.998 0 005.364 2.367h.005c3.865 0 7.01-3.145 7.01-7.010 0-1.87-.72-3.63-2.028-4.95a7.005 7.005 0 00-4.982-2.067M12.14 1C6.425 1 1.862 5.563 1.862 11.278c0 1.908.487 3.77 1.404 5.409L1 23l5.909-1.952a11.285 11.285 0 005.409 1.374h.002c5.717 0 10.282-4.565 10.282-10.282S17.857 1 12.14 1"/>
</svg>
